<mxfile host="app.diagrams.net" agent="Mozilla/5.0 (Windows NT 10.0; Win64; x64) AppleWebKit/537.36 (KHTML, like Gecko) Chrome/129.0.0.0 Safari/537.36" version="24.7.16">
  <diagram name="Page-1" id="pyI-OxfI5H7LUnkpwVLb">
    <mxGraphModel dx="232" dy="387" grid="1" gridSize="10" guides="1" tooltips="1" connect="1" arrows="1" fold="1" page="1" pageScale="1" pageWidth="827" pageHeight="1169" math="0" shadow="0">
      <root>
        <mxCell id="0" />
        <mxCell id="1" parent="0" />
        <mxCell id="yWnmibKHWdppH5cZrXpM-1" value="Sumar dos numeros" style="text;html=1;align=center;verticalAlign=middle;whiteSpace=wrap;rounded=0;" vertex="1" parent="1">
          <mxGeometry x="40" y="40" width="190" height="30" as="geometry" />
        </mxCell>
        <mxCell id="yWnmibKHWdppH5cZrXpM-7" value="" style="edgeStyle=orthogonalEdgeStyle;rounded=0;orthogonalLoop=1;jettySize=auto;html=1;" edge="1" parent="1" source="yWnmibKHWdppH5cZrXpM-3" target="yWnmibKHWdppH5cZrXpM-6">
          <mxGeometry relative="1" as="geometry" />
        </mxCell>
        <mxCell id="yWnmibKHWdppH5cZrXpM-3" value="Inicio&amp;nbsp;" style="ellipse;whiteSpace=wrap;html=1;" vertex="1" parent="1">
          <mxGeometry x="150" y="80" width="60" height="60" as="geometry" />
        </mxCell>
        <mxCell id="yWnmibKHWdppH5cZrXpM-4" value="Fin" style="ellipse;whiteSpace=wrap;html=1;" vertex="1" parent="1">
          <mxGeometry x="150" y="640" width="60" height="60" as="geometry" />
        </mxCell>
        <mxCell id="yWnmibKHWdppH5cZrXpM-10" value="" style="edgeStyle=orthogonalEdgeStyle;rounded=0;orthogonalLoop=1;jettySize=auto;html=1;" edge="1" parent="1" source="yWnmibKHWdppH5cZrXpM-6" target="yWnmibKHWdppH5cZrXpM-9">
          <mxGeometry relative="1" as="geometry" />
        </mxCell>
        <mxCell id="yWnmibKHWdppH5cZrXpM-6" value="numero1 , numero2" style="shape=parallelogram;html=1;strokeWidth=2;perimeter=parallelogramPerimeter;whiteSpace=wrap;rounded=1;arcSize=12;size=0.23;" vertex="1" parent="1">
          <mxGeometry x="130" y="200" width="100" height="60" as="geometry" />
        </mxCell>
        <mxCell id="yWnmibKHWdppH5cZrXpM-9" value="resultado = numero1 + numero2" style="whiteSpace=wrap;html=1;strokeWidth=2;rounded=1;arcSize=12;" vertex="1" parent="1">
          <mxGeometry x="120" y="340" width="120" height="60" as="geometry" />
        </mxCell>
        <mxCell id="yWnmibKHWdppH5cZrXpM-13" style="edgeStyle=orthogonalEdgeStyle;rounded=0;orthogonalLoop=1;jettySize=auto;html=1;exitX=0.5;exitY=1;exitDx=0;exitDy=0;" edge="1" parent="1" source="yWnmibKHWdppH5cZrXpM-9" target="yWnmibKHWdppH5cZrXpM-11">
          <mxGeometry relative="1" as="geometry" />
        </mxCell>
        <mxCell id="yWnmibKHWdppH5cZrXpM-11" value="mostrar resultado" style="shape=parallelogram;html=1;strokeWidth=2;perimeter=parallelogramPerimeter;whiteSpace=wrap;rounded=1;arcSize=12;size=0.23;" vertex="1" parent="1">
          <mxGeometry x="100" y="490" width="160" height="60" as="geometry" />
        </mxCell>
        <mxCell id="yWnmibKHWdppH5cZrXpM-14" style="edgeStyle=orthogonalEdgeStyle;rounded=0;orthogonalLoop=1;jettySize=auto;html=1;exitX=0.5;exitY=1;exitDx=0;exitDy=0;" edge="1" parent="1">
          <mxGeometry relative="1" as="geometry">
            <mxPoint x="181" y="548" as="sourcePoint" />
            <mxPoint x="181" y="638" as="targetPoint" />
          </mxGeometry>
        </mxCell>
      </root>
    </mxGraphModel>
  </diagram>
</mxfile>
